<?xml version="1.0" encoding="UTF-8"?>
<svg id="Camada_1" data-name="Camada 1" xmlns="http://www.w3.org/2000/svg" xmlns:xlink="http://www.w3.org/1999/xlink" viewBox="0 0 2177.13 579.59">
  <defs>
    <style>
      .cls-1 {
        fill: #f2f2f2;
      }

      .cls-2 {
        fill: url(#Gradiente_sem_nome_91);
      }
    </style>
    <linearGradient id="Gradiente_sem_nome_91" data-name="Gradiente sem nome 91" x1="0" y1="289.8" x2="2177.13" y2="289.8" gradientUnits="userSpaceOnUse">
      <stop offset="0" stop-color="#212e4d"/>
      <stop offset="1" stop-color="#344592"/>
    </linearGradient>
  </defs>
  <path class="cls-2" d="M881.86,58.38c0-25.63,19.98-44,45.6-44s45.59,18.37,45.59,44-19.97,43.57-45.59,43.57-45.6-17.94-45.6-43.57ZM890.99,132.29h72.51v225.15h-72.51v-225.15ZM1242.72,45.14v312.3h-66.88v-19.22c-16.5,15.81-38.65,24.78-66.01,24.78-66.44,0-114.2-50.41-114.2-117.91s46.03-117.91,112.47-117.91c24.75,0,45.59,7.27,62.1,20.94V45.14h72.52ZM1173.24,245.07c0-32.89-21.28-55.54-52.98-55.54s-52.54,23.5-52.54,55.54,21.71,55.11,52.54,55.11,52.98-22.64,52.98-55.11ZM1399.02,304.88c25.62,0,38.22-8.54,47.33-23.49l54.28,35.45c-18.24,23.5-46.9,46.14-103.78,46.14-75.56,0-123.32-50.83-123.32-117.91s52.97-118.34,118.98-118.34c74.69,0,118.98,58.1,118.98,113.64,0,11.1-.86,19.65-1.73,25.63h-165.88c7.38,25.21,27.79,38.88,55.15,38.88ZM1444.18,221.57c-6.08-25.63-23.45-41.44-49.93-41.44s-45.17,14.1-51.24,41.44h101.18ZM1542.3,45.14h72.51v312.3h-72.51V45.14ZM1647.37,58.38c0-25.63,19.98-44,45.6-44s45.59,18.37,45.59,44-19.97,43.57-45.59,43.57-45.6-17.94-45.6-43.57ZM1656.49,132.29h72.52v225.15h-72.52v-225.15ZM2177.13,132.29l-126.01,310.95h-71.21l60.07-149.46h-45.49l-64.45-161.5h74.69l45.16,130.4,52.98-130.4h74.25ZM1873.33,294.25c-20.3,0-35.73-3.68-35.73-25.48v-69.25h58.4v-60.65h-55.78V32.47h-71.01v244.89c0,52.06,29.89,80.07,88.93,80.07h39.11v-63.19h-23.91ZM1970,392.18H647.06v51.06h1301.48l21.47-51.06ZM872.17,135.4h-225.11v222.03h72.51v-149.52h152.6v-72.51ZM872.17,32.47h-225.11v72.51h225.11V32.47ZM664.36,556.97v-56.01h11.53v56.01h-11.53ZM783.66,556.97h-10.47l-27.86-35.37c-.9-1.12-1.83-2.51-2.79-4.16.19,1.28.29,2.67.29,4.16v35.37h-11.43v-56.01h11.14l27.18,34.81c.64.8,1.57,2.21,2.79,4.24-.19-1.44-.29-2.85-.29-4.24v-34.81h11.43v56.01ZM855.13,556.97l-23.44-56.01h12.39l15.08,37.85c.83,2.4,1.41,4.11,1.73,5.12.26-1.12.8-2.83,1.63-5.12l14.99-37.85h12.2l-23.34,56.01h-11.24ZM937.73,556.97v-56.01h43.8v9.04h-32.28v13.52h19.88v9.04h-19.88v15.36h34.39v9.04h-45.91ZM1056.84,557.93c-6.15,0-11.45-1.29-15.9-3.88-4.45-2.59-7.61-6.12-9.46-10.6l10.66-3.28c1.41,2.62,3.43,4.71,6.05,6.28,2.63,1.57,5.63,2.36,9.03,2.36s6.32-.67,8.4-2c2.08-1.33,3.12-3.25,3.12-5.76,0-1.01-.29-1.96-.86-2.84s-1.23-1.61-1.97-2.2c-.74-.59-1.84-1.17-3.31-1.76-1.47-.59-2.72-1.05-3.75-1.4-1.03-.35-2.53-.79-4.52-1.32-2.56-.75-4.53-1.33-5.91-1.76-1.38-.43-3.14-1.13-5.28-2.12-2.15-.99-3.78-1.99-4.9-3-1.12-1.01-2.11-2.36-2.98-4.04-.86-1.68-1.3-3.53-1.3-5.56,0-4.27,1.98-7.84,5.96-10.72,3.97-2.88,9.35-4.32,16.14-4.32,5.63,0,10.31,1.11,14.02,3.32,3.71,2.21,6.21,5.11,7.49,8.68l-10.37,2.88c-2.05-3.84-6.02-5.76-11.91-5.76-3.01,0-5.36.52-7.06,1.56-1.7,1.04-2.55,2.52-2.55,4.44,0,1.28.66,2.43,1.97,3.44,1.31,1.01,2.72,1.77,4.23,2.28,1.5.51,3.73,1.16,6.68,1.96,1.92.59,3.38,1.03,4.37,1.32s2.38.79,4.18,1.48c1.79.69,3.2,1.32,4.23,1.88s2.19,1.32,3.51,2.28c1.31.96,2.32,1.96,3.03,3,.7,1.04,1.31,2.27,1.83,3.68.51,1.41.77,2.95.77,4.6,0,5.23-2.23,9.35-6.68,12.36-4.45,3.01-10.1,4.52-16.95,4.52ZM1158.95,510.16v46.81h-11.53v-46.81h-19.12v-9.2h49.76v9.2h-19.12ZM1229.26,556.97v-56.01h11.53v56.01h-11.53ZM1357.5,556.97h-11.53v-29.77c0-2.45.13-4.69.38-6.72-.77,1.92-1.79,4.22-3.07,6.88l-16.33,30.57-16.33-30.73c-1.15-2.13-2.21-4.37-3.17-6.72.25,2.03.38,4.27.38,6.72v29.77h-11.53v-56.01h11.62l17.29,32.89c.7,1.49,1.31,2.88,1.83,4.16.51-1.28,1.12-2.67,1.83-4.16l17.39-32.89h11.24v56.01ZM1412.54,556.97v-56.01h43.8v9.04h-32.28v13.52h19.88v9.04h-19.88v15.36h34.39v9.04h-45.91ZM1562.39,556.97h-10.47l-27.86-35.37c-.9-1.12-1.83-2.51-2.79-4.16.19,1.28.29,2.67.29,4.16v35.37h-11.43v-56.01h11.14l27.18,34.81c.64.8,1.57,2.21,2.79,4.24-.19-1.44-.29-2.85-.29-4.24v-34.81h11.43v56.01ZM1643.75,510.16v46.81h-11.53v-46.81h-19.12v-9.2h49.76v9.2h-19.12ZM1737.5,557.93c-4.16,0-7.94-.56-11.33-1.68-3.4-1.12-6.2-2.63-8.4-4.52-2.21-1.89-4.07-4.09-5.57-6.6s-2.58-5.11-3.22-7.8c-.64-2.69-.96-5.48-.96-8.36s.32-5.67.96-8.36c.64-2.69,1.71-5.29,3.22-7.8,1.51-2.51,3.36-4.71,5.57-6.6,2.21-1.89,5.01-3.4,8.4-4.52,3.39-1.12,7.17-1.68,11.33-1.68,5.19,0,9.75.84,13.69,2.52,3.94,1.68,7.01,3.95,9.22,6.8,2.21,2.85,3.86,5.94,4.95,9.24,1.09,3.31,1.63,6.78,1.63,10.4s-.54,7.1-1.63,10.4c-1.09,3.31-2.74,6.39-4.95,9.24-2.21,2.85-5.28,5.12-9.22,6.8-3.94,1.68-8.5,2.52-13.69,2.52ZM1737.5,548.73c3.07,0,5.8-.61,8.17-1.84,2.37-1.23,4.21-2.84,5.52-4.84,1.31-2,2.29-4.11,2.93-6.32.64-2.21.96-4.47.96-6.76,0-2.45-.32-4.79-.96-7-.64-2.21-1.62-4.31-2.93-6.28-1.31-1.97-3.14-3.55-5.48-4.72-2.34-1.17-5.08-1.76-8.21-1.76-4.1,0-7.53,1.08-10.28,3.24-2.75,2.16-4.66,4.65-5.71,7.48-1.06,2.83-1.59,5.84-1.59,9.04,0,2.4.32,4.72.96,6.96s1.62,4.35,2.93,6.32c1.31,1.97,3.14,3.55,5.48,4.72,2.34,1.17,5.07,1.76,8.21,1.76ZM1841.14,557.93c-6.15,0-11.45-1.29-15.9-3.88-4.45-2.59-7.61-6.12-9.46-10.6l10.66-3.28c1.41,2.62,3.43,4.71,6.05,6.28,2.63,1.57,5.63,2.36,9.03,2.36s6.32-.67,8.4-2c2.08-1.33,3.12-3.25,3.12-5.76,0-1.01-.29-1.96-.86-2.84s-1.23-1.61-1.97-2.2c-.74-.59-1.84-1.17-3.31-1.76-1.47-.59-2.72-1.05-3.75-1.4-1.03-.35-2.53-.79-4.52-1.32-2.56-.75-4.53-1.33-5.91-1.76-1.38-.43-3.14-1.13-5.28-2.12-2.15-.99-3.78-1.99-4.9-3-1.12-1.01-2.11-2.36-2.98-4.04-.86-1.68-1.3-3.53-1.3-5.56,0-4.27,1.98-7.84,5.96-10.72,3.97-2.88,9.35-4.32,16.14-4.32,5.63,0,10.31,1.11,14.02,3.32,3.71,2.21,6.21,5.11,7.49,8.68l-10.37,2.88c-2.05-3.84-6.02-5.76-11.91-5.76-3.01,0-5.36.52-7.06,1.56-1.7,1.04-2.55,2.52-2.55,4.44,0,1.28.66,2.43,1.97,3.44,1.31,1.01,2.72,1.77,4.23,2.28,1.5.51,3.73,1.16,6.68,1.96,1.92.59,3.38,1.03,4.37,1.32s2.38.79,4.18,1.48c1.79.69,3.2,1.32,4.23,1.88s2.19,1.32,3.51,2.28c1.31.96,2.32,1.96,3.03,3,.7,1.04,1.31,2.27,1.83,3.68.51,1.41.77,2.95.77,4.6,0,5.23-2.23,9.35-6.68,12.36-4.45,3.01-10.1,4.52-16.95,4.52ZM434.3,117.88s7.16-22.58,28.87-44.91c21.83-22.45-6.24-63.62-20.58-72.97,0,0,3.74,35.55-16.84,53.02-20.58,17.46-4.72,56.76,8.55,64.87ZM461.72,139.68s8.96-14.64,28.12-26.58c19.27-12.01,6.67-45.85-1.8-54.93,0,0-3.55,25.67-21.07,34.38-17.52,8.71-13.19,39.12-5.26,47.13ZM481.61,164.85s9.55-9.84,26.56-15.79c17.11-5.98,13.22-34.56,8.21-43.11,0,0-7.25,19.38-22.43,23.1-15.17,3.72-17.12,28.17-12.34,35.8ZM415.87,462.17h-207.28c-5.8,0-10.5,4.7-10.5,10.5v16.94h228.28v-16.94c0-5.8-4.7-10.5-10.5-10.5ZM186.94,492.73v-20.06c0-7.84,4.18-14.73,10.43-18.52V193.77h-61.95v298.96h51.52ZM471.43,433.39c8.37-8.99,8.35-20.81,8.23-23.48.03-3.38-.08-29.74-9.6-83.3-9.14-51.39-3.44-68.03-3.45-68.03h0l-.27-.11c1.71-.02,2.55-.04,2.55-.04v-48.81s1.45-6.08-7.28-15.84c-7.61-8.54-32.33-34.62-38.49-41.12-.78-.84-2.09-.81-2.87,0l-6.42,6.72c-.73.75-.75,1.92-.06,2.71l23.51,25.86s-12.89,9.57-12.38,31.83c.53,22.23.11,38.47,17.8,38.66,2.45.03,4.71.05,6.81.06-1.71,9.55-3.12,30.64,4.07,71.05,9.67,54.38,9.35,80.13,9.34,80.38v.39s.01.3.01.3c0,.07.33,7.08-3.83,11.46-2.57,2.71-6.7,4.09-12.26,4.09s-9.73-1.32-12.08-3.92c-3.48-3.86-2.9-9.96-2.9-9.96l.06-1c.02-3.64.41-89.32,0-109.15-.14-6.92-2.78-12.98-7.63-17.53-7.13-6.68-17.44-8.64-24.03-9.19v-132.98c0-11.6-9.4-21-21-21h-136.79c-11.6,0-21,9.4-21,21v309.98h178.8v-160.17c4.39.53,9.67,1.84,12.58,4.57,1.57,1.47,2.29,3.22,2.35,5.67.4,18.95.03,101.83,0,108.33-.25,2.89-.63,13.83,6.96,22.44,5.66,6.41,13.96,9.65,24.69,9.65s18.72-3.2,24.58-9.5ZM435.78,236.56c-1.26-10.21-2.29-30.74,12.47-31.3l3.96,38.55s-15.17,2.93-16.43-7.25ZM376.17,242.64c0,11.13-9.04,20.14-20.17,20.14h-91.91c-11.13,0-20.17-9.01-20.17-20.14v-79.44c0-11.13,9.04-20.17,20.17-20.17h91.91c11.13,0,20.17,9.04,20.17,20.17v79.44ZM528.64,149.39c-3.74,6.11-9.15,10.49-15.87,12.83-2.76.98-5.27,2.06-7.5,3.18,22.43,38.05,35.29,82.43,35.29,129.79,0,141.45-114.67,256.15-256.12,256.15-66.75,0-127.56-25.55-173.14-67.39v-192.47h-61.95v105.52c-13.56-31.19-21.06-65.63-21.06-101.81,0-141.45,114.67-256.12,256.15-256.12,42.65,0,82.84,10.43,118.19,28.87,1.7-10.01,6.28-18.61,13.42-24.94-39.36-20.59-84.1-32.22-131.6-32.22C127.34,10.78,0,138.12,0,295.19c0,59.41,18.21,114.53,49.34,160.14,9.09,13.33,19.3,25.83,30.49,37.41,51.69,53.56,124.27,86.86,204.6,86.86,157.07,0,284.4-127.33,284.4-284.4,0-53.3-14.67-103.18-40.19-145.8Z"/>
  <g>
    <rect class="cls-1" x="663.86" y="500.46" width="12.53" height="57.01"/>
    <path class="cls-1" d="M771.73,535.77c0,.7.02,1.41.07,2.13-.69-1.09-1.24-1.89-1.68-2.43l-27.33-35h-11.89v57.01h12.43v-35.87c0-.69-.02-1.37-.06-2.02.57.87,1.13,1.65,1.67,2.33l27.86,35.37.15.19h11.21v-57.01h-12.43v35.31Z"/>
    <path class="cls-1" d="M862.05,538.64c-.51,1.41-.91,2.59-1.21,3.56-.31-.91-.71-2.09-1.22-3.57l-15.08-37.85-.13-.31h-13.48l23.73,56.71.13.31h11.9l23.76-57.01h-13.29l-15.12,38.18Z"/>
    <polygon class="cls-1" points="949.76 533.07 969.65 533.07 969.65 523.03 949.76 523.03 949.76 510.5 982.04 510.5 982.04 500.46 937.24 500.46 937.24 557.47 984.15 557.47 984.15 547.43 949.76 547.43 949.76 533.07"/>
    <path class="cls-1" d="M1078.29,532.49c-.74-1.08-1.79-2.14-3.15-3.12-1.33-.97-2.53-1.75-3.56-2.32-1.04-.57-2.48-1.21-4.29-1.91-1.85-.71-3.23-1.2-4.22-1.49-.99-.29-2.45-.73-4.38-1.32-2.91-.79-5.15-1.45-6.65-1.95-1.45-.49-2.82-1.23-4.08-2.2-1.19-.92-1.77-1.92-1.77-3.04,0-1.75.75-3.06,2.31-4.02,1.61-.98,3.89-1.48,6.8-1.48,5.66,0,9.52,1.85,11.47,5.5l.19.35,11.28-3.13-.18-.51c-1.32-3.67-3.91-6.68-7.71-8.94-3.78-2.25-8.58-3.39-14.28-3.39-6.87,0-12.39,1.49-16.43,4.42-4.09,2.97-6.16,6.71-6.16,11.13,0,2.1.46,4.04,1.35,5.79.89,1.73,1.93,3.14,3.09,4.18,1.15,1.04,2.84,2.08,5.03,3.09,2.14.99,3.94,1.71,5.34,2.14,1.38.43,3.35,1.02,5.93,1.77,1.97.53,3.48.97,4.48,1.31,1.03.35,2.28.82,3.72,1.39,1.42.57,2.49,1.13,3.19,1.69.7.56,1.32,1.26,1.86,2.08.52.79.78,1.66.78,2.57,0,2.35-.95,4.09-2.89,5.34-1.99,1.27-4.73,1.92-8.14,1.92s-6.24-.77-8.77-2.29c-2.54-1.52-4.51-3.57-5.87-6.09l-.2-.36-11.58,3.56.21.51c1.89,4.56,5.14,8.21,9.67,10.84,4.5,2.62,9.94,3.95,16.15,3.95,6.92,0,12.72-1.55,17.23-4.61,4.58-3.1,6.89-7.4,6.89-12.78,0-1.7-.27-3.31-.8-4.77-.53-1.45-1.16-2.73-1.88-3.79Z"/>
    <polygon class="cls-1" points="1127.81 510.66 1146.92 510.66 1146.92 557.47 1159.45 557.47 1159.45 510.66 1178.57 510.66 1178.57 500.46 1127.81 500.46 1127.81 510.66"/>
    <rect class="cls-1" x="1228.76" y="500.46" width="12.53" height="57.01"/>
    <path class="cls-1" d="M1328.42,533.63c-.5,1.07-.96,2.09-1.37,3.06-.41-.97-.87-2-1.38-3.08l-17.43-33.16h-12.42v57.01h12.53v-30.27c0-1.27-.04-2.5-.1-3.67.62,1.34,1.27,2.65,1.95,3.91l16.77,31.56,16.78-31.41c.68-1.42,1.3-2.75,1.84-3.97-.07,1.14-.1,2.34-.1,3.59v30.27h12.53v-57.01h-12.04l-17.54,33.17Z"/>
    <polygon class="cls-1" points="1424.57 533.07 1444.45 533.07 1444.45 523.03 1424.57 523.03 1424.57 510.5 1456.84 510.5 1456.84 500.46 1412.04 500.46 1412.04 557.47 1458.95 557.47 1458.95 547.43 1424.57 547.43 1424.57 533.07"/>
    <path class="cls-1" d="M1550.46,535.77c0,.7.02,1.41.07,2.13-.69-1.09-1.24-1.89-1.68-2.43l-27.33-35h-11.89v57.01h12.43v-35.87c0-.69-.02-1.37-.06-2.02.57.88,1.13,1.66,1.67,2.33l27.86,35.37.15.19h11.21v-57.01h-12.43v35.31Z"/>
    <polygon class="cls-1" points="1612.6 510.66 1631.72 510.66 1631.72 557.47 1644.24 557.47 1644.24 510.66 1663.36 510.66 1663.36 500.46 1612.6 500.46 1612.6 510.66"/>
    <path class="cls-1" d="M1760.8,509.01c-2.25-2.91-5.42-5.25-9.42-6.95-3.98-1.7-8.65-2.56-13.88-2.56-4.2,0-8.06.57-11.49,1.71-3.44,1.13-6.32,2.69-8.57,4.62-2.24,1.92-4.15,4.18-5.68,6.72-1.53,2.54-2.63,5.22-3.27,7.94-.65,2.71-.97,5.57-.97,8.48s.33,5.77.97,8.48c.65,2.73,1.75,5.4,3.27,7.94,1.53,2.54,3.43,4.8,5.68,6.72,2.25,1.93,5.13,3.48,8.57,4.62,3.43,1.13,7.29,1.71,11.49,1.71,5.23,0,9.9-.86,13.88-2.56,4-1.71,7.17-4.05,9.42-6.96,2.23-2.88,3.92-6.04,5.03-9.39,1.1-3.34,1.66-6.9,1.66-10.56s-.56-7.21-1.66-10.56c-1.1-3.35-2.79-6.51-5.03-9.39ZM1754.58,528.97c0,2.23-.32,4.46-.94,6.62-.62,2.15-1.59,4.24-2.87,6.19-1.26,1.92-3.06,3.49-5.34,4.67-2.29,1.19-4.95,1.79-7.93,1.79s-5.73-.58-7.99-1.71c-2.25-1.13-4.02-2.66-5.28-4.55-1.28-1.92-2.24-4-2.87-6.18-.62-2.18-.94-4.48-.94-6.82,0-3.12.52-6.11,1.55-8.87,1.02-2.73,2.89-5.17,5.55-7.26,2.65-2.08,6-3.14,9.97-3.14,3.04,0,5.73.58,7.99,1.71,2.25,1.13,4.02,2.66,5.28,4.55,1.28,1.93,2.24,3.99,2.87,6.14.62,2.16.94,4.47.94,6.86Z"/>
    <path class="cls-1" d="M1864.47,536.28c-.53-1.45-1.16-2.73-1.88-3.79-.74-1.08-1.79-2.14-3.15-3.12-1.33-.97-2.53-1.75-3.56-2.32-1.04-.57-2.48-1.21-4.29-1.91-1.85-.71-3.23-1.2-4.22-1.49-.99-.29-2.45-.73-4.38-1.32-2.91-.79-5.15-1.45-6.65-1.95-1.45-.49-2.82-1.23-4.08-2.2-1.19-.92-1.77-1.92-1.77-3.04,0-1.75.75-3.06,2.31-4.02,1.61-.98,3.89-1.48,6.8-1.48,5.66,0,9.52,1.85,11.47,5.5l.19.35,11.28-3.13-.18-.51c-1.32-3.67-3.91-6.68-7.71-8.94-3.78-2.25-8.58-3.39-14.28-3.39-6.87,0-12.39,1.49-16.43,4.42-4.09,2.97-6.16,6.71-6.16,11.13,0,2.1.46,4.05,1.35,5.79.89,1.73,1.93,3.14,3.09,4.18,1.15,1.04,2.84,2.08,5.03,3.09,2.15.99,3.94,1.71,5.34,2.14,1.38.43,3.35,1.02,5.93,1.77,1.97.53,3.48.97,4.48,1.31,1.04.35,2.29.82,3.72,1.39,1.42.57,2.49,1.13,3.19,1.69.7.56,1.32,1.26,1.86,2.08.52.79.78,1.66.78,2.57,0,2.35-.95,4.09-2.89,5.34-1.99,1.27-4.73,1.92-8.14,1.92s-6.24-.77-8.77-2.29c-2.54-1.52-4.51-3.57-5.87-6.09l-.2-.36-11.58,3.56.21.51c1.89,4.56,5.14,8.21,9.67,10.84,4.5,2.62,9.94,3.95,16.15,3.95,6.92,0,12.72-1.55,17.23-4.61,4.58-3.1,6.89-7.4,6.89-12.78,0-1.7-.27-3.31-.8-4.77Z"/>
  </g>
</svg>