<?xml version="1.0" encoding="UTF-8"?>
<svg id="Camada_1" xmlns="http://www.w3.org/2000/svg" version="1.1" xmlns:xlink="http://www.w3.org/1999/xlink" viewBox="0 0 2177.13 579.6">
  <!-- Generator: Adobe Illustrator 30.6.0, SVG Export Plug-In . SVG Version: 2.1.4 Build 109)  -->
  <defs>
    <style>
      .st0 {
        fill: url(#Gradiente_sem_nome);
      }

      .st1 {
        fill: #f2f2f2;
      }
    </style>
    <linearGradient id="Gradiente_sem_nome" data-name="Gradiente sem nome" x1="0" y1="290.09" x2="2177.13" y2="290.09" gradientTransform="translate(0 579.89) scale(1 -1)" gradientUnits="userSpaceOnUse">
      <stop offset="0" stop-color="#212e4d"/>
      <stop offset="1" stop-color="#344592"/>
    </linearGradient>
  </defs>
  <path class="st0" d="M881.86,58.38c0-25.63,19.98-44,45.6-44s45.59,18.37,45.59,44-19.97,43.57-45.59,43.57-45.6-17.94-45.6-43.57ZM890.99,132.29h72.51v225.15h-72.51v-225.15h0ZM1242.72,45.14v312.3h-66.88v-19.22c-16.5,15.81-38.65,24.78-66.01,24.78-66.44,0-114.2-50.41-114.2-117.91s46.03-117.91,112.47-117.91c24.75,0,45.59,7.27,62.1,20.94V45.14h72.52ZM1173.24,245.07c0-32.89-21.28-55.54-52.98-55.54s-52.54,23.5-52.54,55.54,21.71,55.11,52.54,55.11,52.98-22.64,52.98-55.11h0ZM1399.02,304.88c25.62,0,38.22-8.54,47.33-23.49l54.28,35.45c-18.24,23.5-46.9,46.14-103.78,46.14-75.56,0-123.32-50.83-123.32-117.91s52.97-118.34,118.98-118.34c74.69,0,118.98,58.1,118.98,113.64,0,11.1-.86,19.65-1.73,25.63h-165.88c7.38,25.21,27.79,38.88,55.15,38.88h-.01ZM1444.18,221.57c-6.08-25.63-23.45-41.44-49.93-41.44s-45.17,14.1-51.24,41.44h101.18-.01ZM1542.3,45.14h72.51v312.3h-72.51V45.14ZM1647.37,58.38c0-25.63,19.98-44,45.6-44s45.59,18.37,45.59,44-19.97,43.57-45.59,43.57-45.6-17.94-45.6-43.57ZM1656.49,132.29h72.52v225.15h-72.52v-225.15h0ZM2177.13,132.29l-126.01,310.95h-71.21l60.07-149.46h-45.49l-64.45-161.5h74.69l45.16,130.4,52.98-130.4h74.26ZM1873.33,294.25c-20.3,0-35.73-3.68-35.73-25.48v-69.25h58.4v-60.65h-55.78V32.47h-71.01v244.89c0,52.06,29.89,80.07,88.93,80.07h39.11v-63.19h-23.92ZM1970,392.18H647.06v51.06h1301.48l21.47-51.06h-.01ZM872.17,135.4h-225.11v222.03h72.51v-149.52h152.6v-72.51h0ZM872.17,32.47h-225.11v72.51h225.11V32.47ZM434.3,117.88s7.16-22.58,28.87-44.91c21.83-22.45-6.24-63.62-20.58-72.97,0,0,3.74,35.55-16.84,53.02-20.58,17.46-4.72,56.76,8.55,64.87h0ZM461.72,139.68s8.96-14.64,28.12-26.58c19.27-12.01,6.67-45.85-1.8-54.93,0,0-3.55,25.67-21.07,34.38-17.52,8.71-13.19,39.12-5.26,47.13h.01ZM481.61,164.85s9.55-9.84,26.56-15.79c17.11-5.98,13.22-34.56,8.21-43.11,0,0-7.25,19.38-22.43,23.1-15.17,3.72-17.12,28.17-12.34,35.8h0ZM415.87,462.17h-207.28c-5.8,0-10.5,4.7-10.5,10.5v16.94h228.28v-16.94c0-5.8-4.7-10.5-10.5-10.5ZM186.94,492.73v-20.06c0-7.84,4.18-14.73,10.43-18.52V193.77h-61.95v298.96h51.52ZM471.43,433.39c8.37-8.99,8.35-20.81,8.23-23.48.03-3.38-.08-29.74-9.6-83.3-9.14-51.39-3.44-68.03-3.45-68.03h0l-.27-.11c1.71-.02,2.55-.04,2.55-.04v-48.81s1.45-6.08-7.28-15.84c-7.61-8.54-32.33-34.62-38.49-41.12-.78-.84-2.09-.81-2.87,0l-6.42,6.72c-.73.75-.75,1.92-.06,2.71l23.51,25.86s-12.89,9.57-12.38,31.83c.53,22.23.11,38.47,17.8,38.66,2.45.03,4.71.05,6.81.06-1.71,9.55-3.12,30.64,4.07,71.05,9.67,54.38,9.35,80.13,9.34,80.38v.69c.01.07.34,7.08-3.82,11.46-2.57,2.71-6.7,4.09-12.26,4.09s-9.73-1.32-12.08-3.92c-3.48-3.86-2.9-9.96-2.9-9.96l.06-1c.02-3.64.41-89.32,0-109.15-.14-6.92-2.78-12.98-7.63-17.53-7.13-6.68-17.44-8.64-24.03-9.19v-132.98c0-11.6-9.4-21-21-21h-136.79c-11.6,0-21,9.4-21,21v309.98h178.8v-160.17c4.39.53,9.67,1.84,12.58,4.57,1.57,1.47,2.29,3.22,2.35,5.67.4,18.95.03,101.83,0,108.33-.25,2.89-.63,13.83,6.96,22.44,5.66,6.41,13.96,9.65,24.69,9.65s18.72-3.2,24.58-9.5v-.02ZM435.78,236.56c-1.26-10.21-2.29-30.74,12.47-31.3l3.96,38.55s-15.17,2.93-16.43-7.25ZM376.17,242.64c0,11.13-9.04,20.14-20.17,20.14h-91.91c-11.13,0-20.17-9.01-20.17-20.14v-79.44c0-11.13,9.04-20.17,20.17-20.17h91.91c11.13,0,20.17,9.04,20.17,20.17v79.44ZM528.64,149.39c-3.74,6.11-9.15,10.49-15.87,12.83-2.76.98-5.27,2.06-7.5,3.18,22.43,38.05,35.29,82.43,35.29,129.79,0,141.45-114.67,256.15-256.12,256.15-66.75,0-127.56-25.55-173.14-67.39v-192.47h-61.95v105.52c-13.56-31.19-21.06-65.63-21.06-101.81,0-141.45,114.67-256.12,256.15-256.12,42.65,0,82.84,10.43,118.19,28.87,1.7-10.01,6.28-18.61,13.42-24.94-39.36-20.59-84.1-32.22-131.6-32.22-157.11,0-284.45,127.34-284.45,284.41,0,59.41,18.21,114.53,49.34,160.14,9.09,13.33,19.3,25.83,30.49,37.41,51.69,53.56,124.27,86.86,204.6,86.86,157.07,0,284.4-127.33,284.4-284.4,0-53.3-14.67-103.18-40.19-145.8h0Z"/>
  <g>
    <path class="st1" d="M707.11,525.41c-1.33,2.5-3.46,4.53-6.38,6.1-2.92,1.57-6.67,2.35-11.25,2.35h-10.05v22.49h-9.09v-55.44h19.14c4.25,0,7.86.73,10.81,2.19,2.95,1.46,5.16,3.44,6.62,5.94,1.46,2.5,2.19,5.29,2.19,8.38,0,2.82-.67,5.48-1.99,7.98ZM697.22,524.09c1.7-1.57,2.55-3.79,2.55-6.66,0-6.06-3.43-9.09-10.29-9.09h-10.05v18.11h10.05c3.46,0,6.03-.78,7.74-2.35Z"/>
    <path class="st1" d="M756.77,553.28c-4.33-2.42-7.76-5.79-10.29-10.13-2.53-4.33-3.79-9.21-3.79-14.64s1.26-10.29,3.79-14.6c2.52-4.31,5.95-7.67,10.29-10.09,4.33-2.42,9.08-3.63,14.24-3.63s9.98,1.21,14.32,3.63c4.33,2.42,7.75,5.78,10.25,10.09,2.5,4.31,3.75,9.17,3.75,14.6s-1.25,10.3-3.75,14.64c-2.5,4.33-5.92,7.71-10.25,10.13-4.33,2.42-9.11,3.63-14.32,3.63s-9.9-1.21-14.24-3.63ZM780.81,546.5c2.87-1.68,5.12-4.07,6.74-7.18,1.62-3.11,2.43-6.71,2.43-10.81s-.81-7.68-2.43-10.77c-1.62-3.08-3.87-5.45-6.74-7.1-2.87-1.65-6.14-2.47-9.81-2.47s-6.94.83-9.81,2.47c-2.87,1.65-5.12,4.02-6.74,7.1-1.62,3.08-2.43,6.67-2.43,10.77s.81,7.7,2.43,10.81c1.62,3.11,3.87,5.5,6.74,7.18,2.87,1.67,6.14,2.51,9.81,2.51s6.94-.84,9.81-2.51Z"/>
    <path class="st1" d="M844.39,554.96c-2.98-1.3-5.32-3.15-7.02-5.54-1.7-2.39-2.55-5.18-2.55-8.38h9.73c.21,2.39,1.16,4.36,2.83,5.9,1.67,1.54,4.03,2.31,7.06,2.31s5.58-.76,7.34-2.27,2.63-3.47,2.63-5.86c0-1.86-.55-3.38-1.63-4.55-1.09-1.17-2.45-2.07-4.07-2.71-1.62-.64-3.87-1.33-6.74-2.07-3.62-.96-6.55-1.93-8.81-2.91-2.26-.98-4.19-2.51-5.78-4.59s-2.39-4.84-2.39-8.3c0-3.19.8-5.98,2.39-8.38,1.6-2.39,3.83-4.23,6.7-5.5s6.19-1.91,9.97-1.91c5.37,0,9.77,1.34,13.2,4.03,3.43,2.69,5.33,6.37,5.7,11.05h-10.05c-.16-2.02-1.12-3.75-2.87-5.18s-4.07-2.15-6.94-2.15c-2.61,0-4.73.67-6.38,1.99-1.65,1.33-2.47,3.24-2.47,5.74,0,1.7.52,3.1,1.56,4.19,1.04,1.09,2.35,1.95,3.95,2.59,1.6.64,3.77,1.33,6.54,2.07,3.67,1.01,6.66,2.02,8.97,3.03,2.31,1.01,4.28,2.57,5.9,4.67,1.62,2.1,2.43,4.91,2.43,8.42,0,2.82-.76,5.48-2.27,7.98-1.52,2.5-3.72,4.51-6.62,6.02-2.9,1.52-6.31,2.27-10.25,2.27-3.72,0-7.07-.65-10.05-1.95Z"/>
    <path class="st1" d="M948.08,500.92v7.42h-14.76v48.02h-9.09v-48.02h-14.84v-7.42h38.69Z"/>
    <path class="st1" d="M996.22,553.28c-4.33-2.42-7.76-5.79-10.29-10.13-2.53-4.33-3.79-9.21-3.79-14.64s1.26-10.29,3.79-14.6c2.52-4.31,5.95-7.67,10.29-10.09,4.33-2.42,9.08-3.63,14.24-3.63s9.98,1.21,14.32,3.63c4.33,2.42,7.75,5.78,10.25,10.09,2.5,4.31,3.75,9.17,3.75,14.6s-1.25,10.3-3.75,14.64c-2.5,4.33-5.92,7.71-10.25,10.13-4.33,2.42-9.11,3.63-14.32,3.63s-9.9-1.21-14.24-3.63ZM1020.27,546.5c2.87-1.68,5.12-4.07,6.74-7.18,1.62-3.11,2.43-6.71,2.43-10.81s-.81-7.68-2.43-10.77c-1.62-3.08-3.87-5.45-6.74-7.1-2.87-1.65-6.14-2.47-9.81-2.47s-6.94.83-9.81,2.47c-2.87,1.65-5.12,4.02-6.74,7.1-1.62,3.08-2.43,6.67-2.43,10.77s.81,7.7,2.43,10.81c1.62,3.11,3.87,5.5,6.74,7.18,2.87,1.67,6.14,2.51,9.81,2.51s6.94-.84,9.81-2.51Z"/>
    <path class="st1" d="M1083.84,554.96c-2.98-1.3-5.32-3.15-7.02-5.54-1.7-2.39-2.55-5.18-2.55-8.38h9.73c.21,2.39,1.16,4.36,2.83,5.9,1.67,1.54,4.03,2.31,7.06,2.31s5.58-.76,7.34-2.27,2.63-3.47,2.63-5.86c0-1.86-.54-3.38-1.63-4.55-1.09-1.17-2.45-2.07-4.07-2.71-1.62-.64-3.87-1.33-6.74-2.07-3.62-.96-6.56-1.93-8.81-2.91-2.26-.98-4.19-2.51-5.78-4.59s-2.39-4.84-2.39-8.3c0-3.19.8-5.98,2.39-8.38,1.6-2.39,3.83-4.23,6.7-5.5s6.19-1.91,9.97-1.91c5.37,0,9.77,1.34,13.2,4.03,3.43,2.69,5.33,6.37,5.7,11.05h-10.05c-.16-2.02-1.12-3.75-2.87-5.18s-4.07-2.15-6.94-2.15c-2.61,0-4.73.67-6.38,1.99-1.65,1.33-2.47,3.24-2.47,5.74,0,1.7.52,3.1,1.56,4.19,1.04,1.09,2.35,1.95,3.95,2.59,1.59.64,3.77,1.33,6.54,2.07,3.67,1.01,6.66,2.02,8.97,3.03,2.31,1.01,4.28,2.57,5.9,4.67,1.62,2.1,2.43,4.91,2.43,8.42,0,2.82-.76,5.48-2.27,7.98-1.52,2.5-3.72,4.51-6.62,6.02s-6.31,2.27-10.25,2.27c-3.72,0-7.07-.65-10.05-1.95Z"/>
    <path class="st1" d="M1234,504.31c4.44,2.26,7.87,5.5,10.29,9.73,2.42,4.23,3.63,9.16,3.63,14.8s-1.21,10.53-3.63,14.68c-2.42,4.15-5.85,7.33-10.29,9.53-4.44,2.21-9.61,3.31-15.51,3.31h-18.11v-55.44h18.11c5.9,0,11.07,1.13,15.51,3.39ZM1233.4,543.67c3.46-3.51,5.18-8.46,5.18-14.84s-1.73-11.46-5.18-15.08c-3.46-3.62-8.43-5.42-14.92-5.42h-9.01v40.6h9.01c6.49,0,11.46-1.75,14.92-5.26Z"/>
    <path class="st1" d="M1293.94,508.26v16.27h19.14v7.42h-19.14v16.99h21.54v7.42h-30.63v-55.52h30.63v7.42h-21.54Z"/>
    <path class="st1" d="M1461.6,500.92v55.44h-9.09v-37.97l-16.91,37.97h-6.3l-16.99-37.97v37.97h-9.09v-55.44h9.81l19.46,43.47,19.38-43.47h9.73Z"/>
    <path class="st1" d="M1510.58,500.92v55.44h-9.09v-55.44h9.09Z"/>
    <path class="st1" d="M1559.55,549.02h18.75v7.34h-27.84v-55.44h9.09v48.1Z"/>
    <path class="st1" d="M1658.06,500.92v55.44h-9.09v-24.25h-26.08v24.25h-9.09v-55.44h9.09v23.77h26.08v-23.77h9.09Z"/>
    <path class="st1" d="M1708.99,553.28c-4.33-2.42-7.76-5.79-10.29-10.13-2.53-4.33-3.79-9.21-3.79-14.64s1.26-10.29,3.79-14.6c2.53-4.31,5.96-7.67,10.29-10.09,4.33-2.42,9.08-3.63,14.24-3.63s9.98,1.21,14.32,3.63c4.33,2.42,7.75,5.78,10.25,10.09,2.5,4.31,3.75,9.17,3.75,14.6s-1.25,10.3-3.75,14.64c-2.5,4.33-5.92,7.71-10.25,10.13-4.33,2.42-9.11,3.63-14.32,3.63s-9.9-1.21-14.24-3.63ZM1733.04,546.5c2.87-1.68,5.12-4.07,6.74-7.18,1.62-3.11,2.43-6.71,2.43-10.81s-.81-7.68-2.43-10.77c-1.62-3.08-3.87-5.45-6.74-7.1-2.87-1.65-6.14-2.47-9.81-2.47s-6.94.83-9.81,2.47c-2.87,1.65-5.12,4.02-6.74,7.1-1.62,3.08-2.43,6.67-2.43,10.77s.81,7.7,2.43,10.81c1.62,3.11,3.87,5.5,6.74,7.18,2.87,1.67,6.14,2.51,9.81,2.51s6.94-.84,9.81-2.51ZM1713.25,489.31c1.6-1.57,3.59-2.35,5.98-2.35,1.01,0,1.89.16,2.63.48.74.32,1.65.8,2.71,1.44.8.53,1.48.93,2.03,1.2.56.27,1.18.4,1.88.4.9,0,1.66-.28,2.27-.84.61-.56,1-1.4,1.16-2.51h5.11c-.43,3.08-1.44,5.41-3.03,6.98-1.6,1.57-3.59,2.35-5.98,2.35-1.01,0-1.91-.17-2.71-.52-.8-.34-1.67-.84-2.63-1.48-.96-.58-1.69-1-2.19-1.24-.51-.24-1.08-.36-1.71-.36-.9,0-1.66.29-2.27.88-.61.59-1,1.44-1.16,2.55h-5.11c.43-3.08,1.44-5.41,3.03-6.98Z"/>
    <path class="st1" d="M1797.49,508.26v16.27h19.14v7.42h-19.14v16.99h21.54v7.42h-30.63v-55.52h30.63v7.42h-21.54Z"/>
    <path class="st1" d="M1866.32,554.96c-2.98-1.3-5.32-3.15-7.02-5.54-1.7-2.39-2.55-5.18-2.55-8.38h9.73c.21,2.39,1.16,4.36,2.83,5.9,1.67,1.54,4.03,2.31,7.06,2.31s5.58-.76,7.34-2.27,2.63-3.47,2.63-5.86c0-1.86-.55-3.38-1.63-4.55-1.09-1.17-2.45-2.07-4.07-2.71-1.62-.64-3.87-1.33-6.74-2.07-3.62-.96-6.55-1.93-8.81-2.91-2.26-.98-4.19-2.51-5.78-4.59-1.59-2.07-2.39-4.84-2.39-8.3,0-3.19.8-5.98,2.39-8.38,1.6-2.39,3.83-4.23,6.7-5.5,2.87-1.28,6.19-1.91,9.97-1.91,5.37,0,9.77,1.34,13.2,4.03,3.43,2.69,5.33,6.37,5.7,11.05h-10.05c-.16-2.02-1.12-3.75-2.87-5.18s-4.07-2.15-6.94-2.15c-2.61,0-4.73.67-6.38,1.99-1.65,1.33-2.47,3.24-2.47,5.74,0,1.7.52,3.1,1.56,4.19,1.04,1.09,2.35,1.95,3.95,2.59,1.6.64,3.78,1.33,6.54,2.07,3.67,1.01,6.66,2.02,8.97,3.03,2.31,1.01,4.28,2.57,5.9,4.67,1.62,2.1,2.43,4.91,2.43,8.42,0,2.82-.76,5.48-2.27,7.98-1.51,2.5-3.72,4.51-6.62,6.02-2.9,1.52-6.32,2.27-10.25,2.27-3.72,0-7.07-.65-10.05-1.95Z"/>
  </g>
</svg>